<?xml version="1.0" encoding="utf-8"?>
<!-- Generator: Adobe Illustrator 22.0.1, SVG Export Plug-In . SVG Version: 6.00 Build 0)  -->
<svg version="1.1" id="Layer_1" xmlns="http://www.w3.org/2000/svg" xmlns:xlink="http://www.w3.org/1999/xlink" x="0px" y="0px"
	 viewBox="0 0 200 200" style="enable-background:new 0 0 200 200;" xml:space="preserve">
<style type="text/css">
	.st0{fill:#599636;}
	.st1{fill:#6CAC48;}
	.st2{fill:#C2BFBF;}
	.st3{fill:#47474A;}
</style>
<g id="g862" transform="matrix(1.6295974,0,0,1.6295974,-22.699855,-22.850935)">
	<path id="path2" class="st0" d="M76.4,14.3c0.8,1.4,1.8,3.6,2.6,5c0.6,0.9,1.2,1.7,2,2.5
		c2.2,2.2,4.3,4.5,6.2,7c4.5,5.9,7.5,12.4,9.6,19.4c1.3,4.3,2,8.7,2,13.2c0.2,13.3-4.4,24.8-13.6,34.3c-1.5,1.5-3.1,2.9-4.8,4.1
		c-0.9,0-1.3-0.7-1.7-1.3c-0.7-1.2-1.1-2.5-1.3-3.9c-0.3-1.6-0.5-3.2-0.4-4.9c0-0.3,0-0.5,0-0.8C76.9,88.8,76,14.7,76.4,14.3z"/>
	<path id="path8" class="st1" d="M76.4,14.1c-0.1-0.2-0.2-0.1-0.3,0.1c0.1,1.1-0.3,2-0.9,3
		c-0.6,0.9-1.5,1.6-2.4,2.4c-4.8,4.1-8.6,9.1-11.6,14.7c-4,7.5-6.1,15.6-6.7,24.1c-0.3,3.1,1,13.9,1.9,17
		c2.6,8.3,7.4,15.2,13.5,21.3c1.5,1.5,3.1,2.8,4.8,4.1c0.5,0,0.5-0.4,0.6-0.8c0.2-0.7,0.4-1.4,0.5-2.1c0.5-2.7,0.8-5.4,1.1-8.1
		C77,89.5,76.5,14.4,76.4,14.1z"/>
	<path id="path10" class="st2" d="M79,103.1c0.1-1.2,0.7-2.3,1.3-3.3c-0.6-0.3-1.1-0.8-1.5-1.4
		c-0.3-0.5-0.6-1.2-0.8-1.8c-0.8-2.3-0.9-4.6-1.1-6.9l0,0l0,0c0-0.2,0-0.5,0-0.7l0,0c0-0.2,0-0.5,0-0.7c-0.3,0.2-0.3,2-0.3,2.3
		c-0.2,2.5-0.5,4.9-1,7.3c-0.2,1-0.3,1.9-0.9,2.8c0,0.1,0,0.2,0.1,0.4c1,2.9,1.2,5.8,1.4,8.7c0,0.4,0,0.7,0,1.1c0,1.3-0.1,1,1,1.5
		c0.4,0.2,0.9,0.2,1.3,0.5c0.3,0,0.4-0.3,0.4-0.5c-0.1-0.6-0.2-1.2-0.2-1.8c0-1.7-0.1-3.3,0-5C78.7,104.7,78.9,103.9,79,103.1z"/>
</g>
<g id="g880" transform="matrix(1.0211238,0,0,1.0211238,-2.4262665,-1.8459459)">
	<path id="path4" class="st3" d="M15.2,176.7c0,1.6,0,3.2,0,4.7c0,0.2,0,0.4,0,0.6
		c0.1,0.6,0.4,0.9,0.9,1.1c0.5,0.1,1,0.2,1.4,0.3c0.3,0,0.4,0.2,0.4,0.4c0,1.1-0.1,1.2-1.1,1.1c-2.4-0.1-4.8-0.2-7.2,0
		c-0.1,0-0.2,0-0.2,0c-0.7,0-0.8,0-0.8-0.8c0-0.1,0-0.3,0-0.4c0-0.2,0.2-0.3,0.4-0.3c0.5-0.1,1-0.2,1.4-0.3c0.7-0.2,1-0.6,1.1-1.2
		c0.1-0.7,0.1-1.5,0.1-2.2c0.1-2.8,0.1-5.6,0-8.4c0-0.5-0.2-0.9-0.7-1.2c-0.6-0.3-1.2-0.6-1.8-0.7c-0.2-0.1-0.4-0.1-0.5-0.2
		c-0.4-0.2-0.5-0.6,0-0.9c0.2-0.1,0.3-0.2,0.5-0.2c1.9-0.3,3.7-0.7,5.6-1.4c0.4-0.1,0.5-0.1,0.5,0.3c0,0.2,0,0.5,0,0.7
		c-0.1,0.4-0.1,0.8-0.1,1.2c0,0.2,0,0.3,0.2,0.4c0.2,0.1,0.3,0,0.4-0.1c0.7-0.5,1.3-1,2-1.4c1-0.6,2.1-1.1,3.3-1.2
		c1.4-0.2,2.7,0.2,3.8,1.1c0.5,0.4,0.8,0.9,1.2,1.4c0.3,0.4,0.3,0.5,0.7,0.2c1.2-0.9,2.4-1.7,3.8-2.2c1.4-0.6,2.8-0.7,4.3-0.2
		c1.5,0.5,2.5,1.6,3.1,3c0.5,1.1,0.7,2.3,0.7,3.5c0,1.8,0,3.7,0,5.6c0,0.9,0,1.9,0,2.8c0,0.6,0.2,0.9,0.8,1.2
		c0.6,0.2,1.2,0.3,1.9,0.5c0.4,0.1,0.4,0.1,0.4,0.5c-0.1,1-0.2,1.1-1.2,1c-2.5-0.2-5-0.1-7.5,0c-0.5,0-0.5,0-0.5-0.5
		c0-0.1,0-0.1,0-0.2c0-0.8,0-0.8,0.8-1c0.3-0.1,0.5-0.1,0.8-0.2c0.6-0.2,0.9-0.6,1-1.2c0-0.8,0.1-1.6,0.1-2.3c0-2,0.1-4.1-0.1-6.1
		c0-0.5-0.1-1.1-0.3-1.6c-0.8-1.9-2.5-2.6-4.2-2.4c-1.2,0.1-2.3,0.6-3.4,1.3c-0.2,0.2-0.4,0.3-0.3,0.7c0.3,2,0.1,4,0.1,6
		c0,1.4,0,2.9,0,4.3c0,0.8,0.3,1.2,1.1,1.3c0.5,0.1,0.9,0.2,1.4,0.3c0.2,0,0.3,0.1,0.3,0.4c0,0.1,0,0.2,0,0.2c0,0.9-0.1,0.9-1,0.9
		c-2.5-0.1-5-0.1-7.5,0c-0.8,0-0.9-0.1-0.9-0.9c0-0.5,0.1-0.5,0.6-0.6c0.3-0.1,0.7-0.1,1-0.2c0.9-0.2,1.2-0.5,1.3-1.5
		c0-0.7,0.1-1.4,0.1-2.1c0-2.1,0.1-4.2-0.1-6.3c-0.1-0.8-0.2-1.5-0.7-2.2c-0.6-1.2-1.6-1.7-2.9-1.8c-1.3-0.1-2.5,0.4-3.7,1
		c-0.8,0.4-1.1,1-1.1,1.9C15.2,173.7,15.2,175.2,15.2,176.7C15.2,176.7,15.2,176.7,15.2,176.7L15.2,176.7z"/>
	<g id="g870">
		<path id="path6" class="st3" d="M74,176.9c0,1.5,0,2.9,0,4.4c0,0.3,0,0.6,0.1,0.9
			c0.1,0.5,0.3,0.7,0.7,0.9c0.5,0.2,1.1,0.2,1.7,0.3c0.3,0,0.4,0.2,0.4,0.4c0,0.1,0,0.1,0,0.2c0,1.1-0.2,1.2-1.2,1.2
			c-2.4-0.2-4.7-0.1-7.1,0c-0.3,0-0.6,0-0.9,0c-0.2,0-0.2-0.1-0.3-0.2c-0.1-0.4-0.1-0.9,0-1.3c0-0.2,0.2-0.2,0.3-0.3
			c0.4-0.1,0.8-0.2,1.3-0.2c0.8-0.2,1.1-0.5,1.1-1.3c0.1-0.9,0.1-1.7,0.1-2.6c0-2.6,0-5.1,0-7.7c0-0.6-0.2-0.9-0.7-1.2
			c-0.6-0.3-1.2-0.5-1.8-0.7c-0.2-0.1-0.4-0.1-0.5-0.2c-0.4-0.3-0.4-0.7-0.1-1c0.2-0.2,0.4-0.2,0.6-0.2c2-0.3,3.9-0.7,5.8-1.5
			c0.2-0.1,0.3,0,0.4,0.2c0.1,0.2,0.1,0.4,0.1,0.6c0,0.5-0.1,1-0.1,1.5c0,0.2-0.1,0.4,0.1,0.5c0.2,0.1,0.3-0.2,0.5-0.2
			c0.9-0.7,1.9-1.4,3-1.9c1-0.4,2-0.7,3.1-0.7c2.1,0.1,3.6,1.2,4.6,3c0.5,1,0.7,2,0.8,3.1c0.1,0.7,0.1,1.5,0.1,2.3
			c0,2.2,0,4.3,0,6.4c0,0.2,0,0.3,0,0.5c0,0.5,0.2,0.9,0.7,1.1c0.6,0.2,1.1,0.3,1.7,0.4c0.5,0.1,0.5,0.2,0.6,0.6c0,0.1,0,0.1,0,0.2
			c-0.1,1.1-0.1,1.1-1.2,1c-2.3-0.1-4.7-0.1-7,0c-0.3,0-0.6,0-0.9,0c-0.2,0-0.3,0-0.3-0.2c-0.1-0.4-0.1-0.8,0-1.2
			c0-0.2,0.1-0.3,0.3-0.3c0.5-0.1,1-0.1,1.4-0.2c0.5-0.1,0.8-0.4,0.8-0.9c0-0.3,0.1-0.6,0.1-0.9c0-2.2,0-4.4,0-6.5
			c0-0.7,0-1.5-0.2-2.2c-0.4-1.6-1.6-2.7-3.2-2.9c-1.4-0.2-2.7,0.2-3.9,1c-0.6,0.4-0.8,0.9-0.8,1.6c0,1.1,0,2.2,0,3.3
			C74,176,74,176.5,74,176.9C74,176.9,74,176.9,74,176.9z"/>
		<path id="path12" class="st2" d="M165.4,168c-0.3-2.3-1.2-4.3-2.7-6.1c-1.3-1.6-2.9-2.8-4.8-3.6
			c-2-0.8-4.1-1.1-6.2-1.1c-0.9,0-12.8,0.2-13.7,0c-0.2,0-0.4,0-0.5,0.2c-0.2,0.2-0.3,0.5-0.4,0.7c-0.4,0.8-0.4,0.8,0.5,0.9
			c0.7,0.1,1.5,0.2,2.2,0.4c0.7,0.2,1.1,0.6,1.3,1.3c0.1,0.3,0.1,11.3,0.1,16.5c0,1.2,0,2.4-0.1,3.7c0,0.3-0.1,0.6-0.2,0.8
			c-0.1,0.4-0.3,0.7-0.7,0.8c-0.4,0.2-0.8,0.3-1.3,0.3c-0.8,0.1-1,0.1-1.2,1.1c0,0.1-0.1,0.2-0.1,0.3c-0.1,0.4,0,0.5,0.4,0.5
			c1.9,0,7.8,0.1,9.3,0.1c0.9,0,2.3,0.1,3.7-0.1c0.8-0.1,1.7-0.2,2.5-0.3c2.9-0.5,5.4-1.7,7.6-3.6c1.3-1.1,2.2-2.4,3-3.9
			c0.9-1.7,1.2-3.7,1.3-5.6C165.7,170.3,165.6,169.1,165.4,168z M160.9,172.5c-0.1,2-0.5,3.9-1.6,5.7c-1.3,2.3-3.2,3.9-5.8,4.4
			c-1.1,0.2-2.2,0.3-3.4,0.2c-0.8-0.1-1.7-0.2-2.4-0.5c-1.4-0.5-1.9-1.4-1.9-2.7c-0.1-2,0-15.7,0-18.8c0-1.1,0.5-1.4,1.3-1.4
			c1.2-0.1,2.5-0.1,3.7,0.1c1.3,0.1,2.6,0.4,3.8,0.9c0.9,0.4,1.7,0.9,2.5,1.5c1.7,1.4,2.8,3.2,3.4,5.4
			C160.9,169,161,170.7,160.9,172.5z"/>
		<path id="path14" class="st2" d="M191.4,175.5c0-0.2,0-0.3,0-0.5c-0.3-1.7-1.2-3-2.6-4
			c-0.9-0.7-1.9-1.1-3-1.4c-0.2-0.1-0.3-0.1-0.5-0.2c0-0.2,0.1-0.2,0.2-0.2c0.6-0.3,1.2-0.7,1.7-1.1c1-0.8,1.6-1.8,1.9-3
			c0.2-0.7,0.2-1.3,0.1-2c-0.2-1.7-0.9-3.1-2.3-4.1c-1.4-1.1-3.1-1.5-4.9-1.5c-3.4-0.1-6.8,0-10.1,0c-1,0-1.9,0.1-2.9-0.1
			c-0.2,0-0.4-0.1-0.6,0.1c-0.2,0.4-0.5,0.8-0.6,1.3c0,0.2,0,0.3,0.3,0.4c0.7,0.1,1.4,0.2,2.2,0.3c0.8,0.1,1.4,0.6,1.5,1.3
			c0.1,0.5,0.1,1,0.1,1.6c0,1.9,0,3.9-0.1,5.8c-0.1,3.8,0,7.7,0,11.6c0,0.7-0.1,1.3-0.2,2c-0.1,0.5-0.3,0.8-0.8,0.9
			c-0.6,0.2-1.2,0.4-1.9,0.4c-0.4,0-0.7,0.2-0.8,0.5c-0.1,0.3-0.2,0.6-0.3,0.9c-0.1,0.4,0,0.5,0.4,0.4c0.3,0,10.6,0.2,12.5,0
			c1.2-0.1,2.3-0.3,3.4-0.6c2-0.6,3.8-1.5,5.2-3.1c1.2-1.2,1.9-2.7,1.9-4.5C191.4,176.4,191.4,176,191.4,175.5z M176.2,162.7
			c0.1-0.8,0.1-1.7,0.1-2.5c0-0.5,0.2-0.7,0.7-0.8c0.7-0.2,1.5-0.1,2.2-0.1c0.7,0.1,1.5,0.2,2.2,0.4c1.4,0.4,2.4,1.2,3.1,2.5
			c0.3,0.6,0.4,1.2,0.4,1.9c0,0.9,0,1.7-0.4,2.6c-0.5,1.2-1.4,1.9-2.6,2.1s-4.7,0.1-5.2,0.1c-0.5,0-0.5-0.1-0.5-0.5c0-1,0-2,0-3l0,0
			C176.2,164.6,176.2,163.7,176.2,162.7L176.2,162.7z M186.4,179.5c-0.5,1.4-1.5,2.4-2.9,2.9c-0.7,0.3-1.5,0.4-2.3,0.4
			c-1,0-1.9,0-2.9-0.2c-1.3-0.3-1.9-1.5-2-2.4c-0.2-1.6-0.1-3.2-0.1-4.4c0-1.7,0-2.9,0-4.1c0-0.5,0.1-0.7,0.6-0.7c1,0,1.9-0.1,2.9,0
			c0.7,0.1,1.3,0.1,2,0.2c1.4,0.3,2.7,0.8,3.7,1.9c0.8,0.9,1.2,1.9,1.3,3.1C186.9,177.5,186.8,178.5,186.4,179.5L186.4,179.5z"/>
		<path id="path16" class="st3" d="M107.1,170.1c0.3,0,0.6,0.1,0.8,0.1c0.9,0,1.9-0.3,2.2-1.5
			c0.2-0.6,0.2-1.2,0-1.8c-0.2,0-0.3,0.2-0.4,0.2c-0.5,0.4-1,0.6-1.6,0.7c-1.1,0.1-2.2,0.1-3.3-0.3c-0.5-0.2-1-0.4-1.5-0.5
			c-1.1-0.3-2.2-0.5-3.3-0.4c-1.6,0.1-3.1,0.7-4.5,1.4c-1.5,0.8-2.6,2-3.1,3.7c-0.3,1-0.3,2-0.2,3c0.3,2.3,1.5,3.9,3.6,4.7
			c0.1,0,0.2,0.1,0.3,0.1c0.3,0.2,0.3,0.3,0.1,0.5c-0.2,0.2-0.5,0.4-0.8,0.5c-0.6,0.4-1.2,0.7-1.9,1.2c-0.5,0.3-0.5,0.5-0.4,1
			c0.2,0.6,0.5,1.1,1,1.5c0.4,0.4,0.9,0.7,1.4,0.9c0.3,0.2,0.3,0.2,0,0.5c-0.6,0.4-1.2,0.8-1.8,1.3c-0.6,0.4-1.2,0.9-1.7,1.5
			c-0.7,0.8-1,1.7-0.7,2.8c0.2,1.1,0.8,2,1.6,2.8c0.8,0.7,1.8,1.3,2.9,1.6c1.7,0.5,3.6,0.5,5.3,0.2c2.6-0.5,4.8-1.6,6.6-3.5
			c1.2-1.3,1.9-2.8,2-4.6c0.1-2.2-1.2-4-3.4-4.6c-0.6-0.1-1.1-0.2-1.7-0.3c-1.7-0.2-3.4-0.3-5.2-0.4c-0.6,0-1.1-0.1-1.6-0.4
			c-0.6-0.4-0.7-1.1-0.4-1.6c0.3-0.3,0.6-0.6,1.1-0.6c0.3,0,0.7-0.1,1-0.1c2-0.2,3.8-1,5.3-2.4c0.8-0.7,1.3-1.6,1.6-2.7
			c0.4-1.3,0.4-2.7,0.1-4.1C106.6,170.1,106.6,170.1,107.1,170.1L107.1,170.1z M99.4,185.7c0.2,0,0.4,0,0.6,0
			c1.3,0.1,2.7,0.2,3.9,0.5c0.4,0.1,0.8,0.3,1.2,0.5c1.2,0.7,1.7,1.9,1.6,3.2c-0.2,1.4-1,2.4-2.2,3.1c-0.8,0.4-1.7,0.7-2.7,0.7
			c-0.3,0-0.7,0-1,0c-1.1,0-2.2-0.1-3.2-0.5c-0.7-0.3-1.3-0.7-1.8-1.2c-1.1-1.1-1.6-3.1,0-4.7C96.9,186.2,98,185.5,99.4,185.7z
			 M103,175.9c-0.7,1.7-2.1,2.2-3.5,1.9c-1.3-0.2-2.3-0.9-2.9-2.1c-0.8-1.6-1-3.2-0.6-5c0.3-1.3,1.1-2.2,2.5-2.5
			c1.7-0.3,3.4,0.3,4.3,2.1c0.4,0.8,0.7,1.9,0.7,3.3C103.4,174.3,103.3,175.1,103,175.9z"/>
		<path id="path18" class="st3" d="M63.6,173.8c-0.3-1.7-0.9-3.2-2.1-4.5
			c-1.7-1.9-3.9-2.7-6.4-2.7c-2.2,0-4.2,0.6-6,1.7c-1.8,1.1-3.1,2.7-3.7,4.8c-0.5,1.8-0.5,3.7-0.1,5.5c1.1,4.9,4.9,7.1,9.5,6.7
			c1.3-0.1,2.6-0.5,3.8-1.1c1.8-0.8,3.1-2.2,4-4c0.7-1.5,1-3,1-4.8C63.8,175,63.7,174.4,63.6,173.8z M59.2,180.7
			c-0.6,1.5-1.6,2.4-3.2,2.6c-1.4,0.2-2.7-0.2-3.8-1c-0.8-0.6-1.5-1.4-2-2.3c-1.3-2.6-1.5-5.4-0.8-8.2c0.2-0.9,0.7-1.7,1.3-2.3
			c1.2-1.1,2.5-1.3,4-1c1.4,0.3,2.5,1.1,3.4,2.3s1.3,2.6,1.6,4c0.1,0.7,0.1,1.5,0.2,1.9C59.8,178.3,59.7,179.5,59.2,180.7z"/>
		<path id="path20" class="st3" d="M131.8,174c-0.2-1.8-0.9-3.5-2.2-4.8c-1.7-1.8-3.9-2.6-6.3-2.7
			c-2.1,0-4,0.6-5.8,1.6c-2,1.2-3.4,2.9-3.9,5.2c-0.6,2.6-0.4,5.1,0.7,7.4c1,2.2,2.8,3.6,5.1,4.2c2.6,0.7,5,0.4,7.4-0.8
			c2.1-1,3.5-2.6,4.4-4.7c0.5-1.2,0.7-2.6,0.7-4.2C132,175,131.9,174.5,131.8,174L131.8,174z M127.5,180.3c-0.5,1.7-1.6,2.8-3.3,3
			c-1.3,0.2-2.6-0.1-3.7-0.9c-1-0.7-1.7-1.5-2.2-2.6c-0.6-1.1-0.9-2.2-1-3.4c-0.2-1.5-0.2-2.9,0.2-4.4c0.1-0.3,0.2-0.6,0.3-0.8
			c0.9-2.2,2.8-3.2,5.1-2.7c1.5,0.3,2.7,1.2,3.6,2.5c0.8,1.2,1.2,2.6,1.4,4.1c0.1,0.6,0.1,1.2,0.1,1.7
			C128,178.1,127.9,179.2,127.5,180.3z"/>
	</g>
</g>
</svg>
