<?xml version="1.0" encoding="utf-8"?>
<!-- Generator: Adobe Illustrator 22.0.1, SVG Export Plug-In . SVG Version: 6.00 Build 0)  -->
<svg version="1.0" id="Layer_1" xmlns="http://www.w3.org/2000/svg" xmlns:xlink="http://www.w3.org/1999/xlink" x="0px" y="0px"
	 viewBox="0 0 200 200" style="enable-background:new 0 0 200 200;" xml:space="preserve">
<style type="text/css">
	.st0{fill:#865FC5;}
	.st1{enable-background:new    ;}
</style>
<path id="iconBg" class="st0" d="M143.8,3.2v141.6L20,126.4l123.8,41.6l41.3-17.1V20.4L143.8,3.2z
	 M62.5,82.5l37.9,37.5l22.7-9.6V36.9l-22.7-9.6L62.5,64.7L39.7,47.5l-9.4,3.1v45.9l9.4,3.1L62.5,82.5z M100.5,54v39.3L74.4,73.6
	L100.5,54z M39.7,60l13.8,13.6L39.7,87.3V60z"/>
<g id="g3694" class="st1">
	<path id="path3682" class="st0" d="M39,173.7l-8.1,22H28l-8-22h2.9l6.1,17.4c0.2,0.6,0.3,1.2,0.4,1.9h0.1c0.1-0.6,0.3-1.3,0.5-2
		l6.2-17.4C36.2,173.7,39,173.7,39,173.7z"/>
	<path id="path3684" class="st0" d="M42.1,176c-0.4,0-0.8-0.2-1.2-0.5c-0.3-0.3-0.5-0.7-0.5-1.2s0.2-0.9,0.5-1.2
		c0.3-0.3,0.7-0.5,1.2-0.5c0.5,0,0.9,0.2,1.2,0.5c0.3,0.3,0.5,0.7,0.5,1.2c0,0.4-0.2,0.8-0.5,1.1C43,175.8,42.6,176,42.1,176z
		 M43.4,195.6h-2.5v-15.7h2.5V195.6z"/>
	<path id="path3686" class="st0" d="M46.6,195.1v-2.7c1.4,1,2.9,1.5,4.5,1.5c2.2,0,3.3-0.7,3.3-2.2c0-0.4-0.1-0.8-0.3-1.1
		c-0.2-0.3-0.4-0.5-0.8-0.8c-0.3-0.2-0.7-0.4-1.1-0.6c-0.4-0.2-0.9-0.4-1.4-0.6c-0.7-0.3-1.3-0.6-1.8-0.8c-0.5-0.3-1-0.6-1.3-0.9
		c-0.4-0.4-0.6-0.8-0.8-1.2c-0.2-0.4-0.3-1-0.3-1.6c0-0.7,0.2-1.4,0.5-2c0.3-0.6,0.8-1,1.3-1.4c0.6-0.4,1.2-0.7,1.9-0.9
		c0.7-0.2,1.5-0.3,2.2-0.3c1.4,0,2.6,0.2,3.7,0.7v2.5c-1.2-0.8-2.5-1.1-4-1.1c-0.5,0-0.9,0.1-1.3,0.2c-0.4,0.1-0.7,0.3-1,0.5
		c-0.3,0.2-0.5,0.4-0.6,0.7c-0.1,0.3-0.2,0.6-0.2,0.9c0,0.4,0.1,0.7,0.2,1c0.1,0.3,0.4,0.5,0.7,0.7c0.3,0.2,0.6,0.4,1,0.6
		c0.4,0.2,0.9,0.4,1.4,0.6c0.7,0.3,1.3,0.5,1.9,0.8c0.6,0.3,1,0.6,1.4,0.9c0.4,0.4,0.7,0.8,0.9,1.2c0.2,0.5,0.3,1,0.3,1.6
		c0,0.8-0.2,1.4-0.5,2c-0.3,0.6-0.8,1-1.4,1.4c-0.6,0.4-1.2,0.7-2,0.8s-1.5,0.3-2.3,0.3C49.1,196,47.7,195.7,46.6,195.1z"/>
	<path id="path3688" class="st0" d="M72.6,195.6h-2.5v-2.5H70c-1,1.9-2.7,2.8-4.8,2.8c-3.7,0-5.6-2.2-5.6-6.7v-9.4h2.5v9
		c0,3.3,1.3,5,3.8,5c1.2,0,2.2-0.5,3-1.4c0.8-0.9,1.2-2.1,1.2-3.5v-9h2.5V195.6z"/>
	<path id="path3690" class="st0" d="M88,195.6h-2.5v-2.5h-0.1c-1.1,1.9-2.7,2.8-4.8,2.8c-1.6,0-2.8-0.4-3.7-1.2
		c-0.9-0.8-1.3-1.9-1.3-3.3c0-2.9,1.7-4.6,5.2-5.1l4.7-0.7c0-2.7-1.1-4-3.2-4c-1.9,0-3.6,0.6-5.1,1.9v-2.6c1.5-1,3.3-1.5,5.3-1.5
		c3.7,0,5.5,2,5.5,5.9V195.6z M85.5,187.7l-3.8,0.5c-1.2,0.2-2,0.5-2.6,0.9c-0.6,0.4-0.9,1.1-0.9,2.2c0,0.8,0.3,1.4,0.8,1.9
		s1.3,0.7,2.2,0.7c1.2,0,2.3-0.4,3.1-1.3c0.8-0.9,1.2-2,1.2-3.3C85.5,189.3,85.5,187.7,85.5,187.7z"/>
	<path id="path3692" class="st0" d="M94.3,195.6h-2.5v-23.2h2.5V195.6z"/>
</g>
<g id="g3708" class="st1">
	<path id="path3696" class="st0" d="M102.2,194.7v-3c0.3,0.3,0.8,0.6,1.2,0.8c0.5,0.2,1,0.5,1.5,0.6c0.5,0.2,1.1,0.3,1.6,0.4
		c0.5,0.1,1,0.1,1.5,0.1c1.6,0,2.8-0.3,3.6-0.9c0.8-0.6,1.2-1.4,1.2-2.5c0-0.6-0.1-1.1-0.4-1.5c-0.3-0.4-0.6-0.8-1.1-1.2
		c-0.5-0.4-1-0.7-1.6-1c-0.6-0.3-1.3-0.7-2-1c-0.8-0.4-1.5-0.8-2.1-1.2c-0.7-0.4-1.2-0.8-1.7-1.3c-0.5-0.5-0.9-1-1.2-1.6
		c-0.3-0.6-0.4-1.3-0.4-2.1c0-1,0.2-1.9,0.7-2.6c0.4-0.7,1-1.4,1.7-1.8c0.7-0.5,1.5-0.8,2.4-1.1c0.9-0.2,1.8-0.4,2.8-0.4
		c2.2,0,3.7,0.3,4.7,0.8v2.9c-1.3-0.9-3-1.3-5-1.3c-0.6,0-1.1,0.1-1.7,0.2c-0.6,0.1-1.1,0.3-1.5,0.6c-0.4,0.3-0.8,0.6-1.1,1
		c-0.3,0.4-0.4,0.9-0.4,1.5c0,0.6,0.1,1,0.3,1.5c0.2,0.4,0.5,0.8,0.9,1.1c0.4,0.3,0.9,0.7,1.5,1c0.6,0.3,1.3,0.7,2,1
		c0.8,0.4,1.5,0.8,2.2,1.2s1.3,0.9,1.9,1.4c0.5,0.5,1,1.1,1.3,1.7c0.3,0.6,0.5,1.4,0.5,2.2c0,1.1-0.2,2-0.6,2.7
		c-0.4,0.8-1,1.4-1.7,1.8c-0.7,0.5-1.6,0.8-2.5,1c-0.9,0.2-1.9,0.3-3,0.3c-0.3,0-0.8,0-1.3-0.1c-0.5-0.1-1-0.1-1.6-0.2
		c-0.5-0.1-1-0.2-1.5-0.4C102.8,195.1,102.4,194.9,102.2,194.7z"/>
	<path id="path3698" class="st0" d="M125.3,195.5c-0.6,0.3-1.4,0.5-2.3,0.5c-2.8,0-4.1-1.5-4.1-4.6v-9.3h-2.7v-2.1h2.7v-3.8l2.5-0.8
		v4.6h4v2.1h-4v8.8c0,1.1,0.2,1.8,0.5,2.3c0.4,0.5,1,0.7,1.8,0.7c0.6,0,1.2-0.2,1.6-0.5V195.5z"/>
	<path id="path3700" class="st0" d="M140.9,195.6h-2.5v-2.5h-0.1c-1,1.9-2.7,2.8-4.8,2.8c-3.7,0-5.6-2.2-5.6-6.7v-9.4h2.5v9
		c0,3.3,1.3,5,3.8,5c1.2,0,2.2-0.5,3-1.4c0.8-0.9,1.2-2.1,1.2-3.5v-9h2.5L140.9,195.6L140.9,195.6z"/>
	<path id="path3702" class="st0" d="M158.9,195.6h-2.5V193h-0.1c-1.2,2-3,3-5.4,3c-2,0-3.6-0.7-4.7-2.1c-1.2-1.4-1.8-3.3-1.8-5.7
		c0-2.6,0.7-4.7,2-6.2c1.3-1.6,3.1-2.3,5.2-2.3c2.2,0,3.7,0.8,4.7,2.5h0.1v-9.7h2.5V195.6z M156.4,188.5v-2.3c0-1.3-0.4-2.3-1.3-3.2
		s-1.9-1.3-3.2-1.3c-1.5,0-2.7,0.6-3.6,1.7c-0.9,1.1-1.3,2.7-1.3,4.7c0,1.8,0.4,3.2,1.3,4.3c0.8,1,2,1.6,3.4,1.6
		c1.4,0,2.5-0.5,3.4-1.5C156,191.4,156.4,190.1,156.4,188.5z"/>
	<path id="path3704" class="st0" d="M164.9,176c-0.4,0-0.8-0.2-1.2-0.5s-0.5-0.7-0.5-1.2s0.2-0.9,0.5-1.2c0.3-0.3,0.7-0.5,1.2-0.5
		c0.5,0,0.9,0.2,1.2,0.5c0.3,0.3,0.5,0.7,0.5,1.2c0,0.4-0.2,0.8-0.5,1.1C165.7,175.8,165.3,176,164.9,176z M166.1,195.6h-2.5v-15.7
		h2.5V195.6z"/>
	<path id="path3706" class="st0" d="M177.3,196c-2.3,0-4.2-0.7-5.6-2.2c-1.4-1.5-2.1-3.4-2.1-5.8c0-2.6,0.7-4.7,2.2-6.2
		c1.4-1.5,3.4-2.2,5.8-2.2c2.3,0,4.2,0.7,5.5,2.2c1.3,1.4,2,3.4,2,6c0,2.5-0.7,4.5-2.1,6C181.5,195.2,179.7,196,177.3,196z
		 M177.5,181.7c-1.6,0-2.9,0.5-3.8,1.6c-0.9,1.1-1.4,2.6-1.4,4.5c0,1.9,0.5,3.3,1.4,4.4c1,1.1,2.2,1.6,3.8,1.6
		c1.6,0,2.9-0.5,3.8-1.6c0.9-1.1,1.3-2.5,1.3-4.5c0-2-0.4-3.5-1.3-4.5C180.3,182.2,179.1,181.7,177.5,181.7z"/>
</g>
</svg>
