<?xml version="1.0" encoding="utf-8"?>
<!-- Generator: Adobe Illustrator 22.0.1, SVG Export Plug-In . SVG Version: 6.00 Build 0)  -->
<svg version="1.1" id="Layer_1" xmlns="http://www.w3.org/2000/svg" xmlns:xlink="http://www.w3.org/1999/xlink" x="0px" y="0px"
	 viewBox="0 0 200 200" style="enable-background:new 0 0 200 200;" xml:space="preserve">
<style type="text/css">
	.st0{fill:url(#SVGID_1_);}
	.st1{fill:url(#SVGID_2_);}
	.st2{fill:url(#SVGID_3_);}
	.st3{fill:#231F1F;}
</style>
<g transform="matrix(.569 0 0 .569 199.451 -82.735)">
	
		<linearGradient id="SVGID_1_" gradientUnits="userSpaceOnUse" x1="-20920.1387" y1="-17460.0137" x2="-20829.1328" y2="-17513.7891" gradientTransform="matrix(0.1187 0 0 0.1187 2244.4512 2463.665)">
		<stop  offset="0" style="stop-color:#909CA9"/>
		<stop  offset="1" style="stop-color:#EDEDEE"/>
	</linearGradient>
	<path class="st0" d="M-127.8,276.6l-52.5,17.1l-45.7,20.2l-12.8,3.4c-3.3,3.1-6.7,6.2-10.4,9.4c-4,3.5-7.8,6.7-10.7,9
		c-3.2,2.5-8,7.3-10.4,10.3c-3.6,4.5-6.5,9.3-7.7,13c-2.2,6.7-1.1,13.4,3.1,19.7c5.4,7.9,16.2,16,28.7,21.6
		c6.4,2.8,17.1,6.4,25.2,8.5c13.5,3.4,39.5,7.1,53.8,7.7c2.9,0.1,6.8,0.1,6.9,0c0.3-0.2,2.5-4.4,5.1-9.7c8.8-18,15.2-34.9,18.6-49.3
		c2.1-8.7,3.7-20.4,4.8-34.1c0.3-3.9,0.4-16.8,0.2-21.1c-0.4-7.1-1-12.9-2-18.6c-0.2-0.8-0.2-1.6-0.1-1.6c0.2-0.1,0.6-0.3,7.1-2.1
		L-127.8,276.6L-127.8,276.6L-127.8,276.6L-127.8,276.6z M-139.8,283.6c0.5,0,1.7,12.2,2.1,19.9c0.1,1.6,0,2.7,0,2.7
		c-0.3,0-6.7-3.8-11.3-6.6c-4-2.5-11.5-7.5-12.7-8.5c-0.4-0.3-0.4-0.3,2.9-1.4C-153.3,287.9-140.2,283.6-139.8,283.6z M-166.5,292.5
		c0.4,0,1.3,0.5,3.5,1.9c8.2,5.1,19.3,11.3,24.1,13.4c1.5,0.6,1.6,0.4-1.7,2.7c-7.2,4.9-16.2,9.8-27.3,14.6
		c-1.9,0.9-3.6,1.5-3.6,1.5c-0.1,0,0.2-1,0.5-2.2c2.7-9.9,4.2-19.9,4.2-27.9C-166.9,292.5-166.9,292.5-166.5,292.5
		C-166.6,292.5-166.6,292.5-166.5,292.5L-166.5,292.5z M-172,294.6c0.2,0.2,0.1,9.1-0.2,11.6c-0.7,5.8-1.8,11.2-3.7,17.3
		c-0.4,1.5-0.8,2.7-0.9,2.8c-0.2,0.2-5.6-5.1-7.4-7.2c-3.1-3.6-5.5-7.1-7.3-10.6c-0.9-1.8-2.3-5.3-2.2-5.4
		C-193.1,302.5-172.2,294.4-172,294.6L-172,294.6z M-198,304.8c0,0,0.1,0,0.1,0c0.1,0.1,0.4,0.7,0.6,1.4c1.3,3.5,4.1,8.5,6.6,11.8
		c2.7,3.6,6.2,7.4,9.2,9.9c1,0.8,1.8,1.5,1.9,1.7c0.2,0.2,0.3,0.2-6.2,2.7c-7.5,2.9-15.7,5.7-25,8.7c-2.2,0.7-4.5,1.4-6.7,2.2
		c-0.4,0.1-0.2-0.1,0.8-1.7c4.6-7.3,11.7-21.5,15.7-31.6c0.7-1.7,1.3-3.5,1.5-3.9c0.2-0.6,0.4-0.8,0.9-1
		C-198.4,304.8-198.1,304.8-198,304.8L-198,304.8z M-205.9,308.1c0.1,0.1-1.9,4.3-3.9,8.2c-3.9,7.5-8.1,14.9-13.7,23.9
		c-1,1.5-1.9,3-2,3.1c-0.2,0.3-0.3,0.2-0.9-1c-1.3-2.7-2.5-6.1-3.1-9.2c-0.6-3.1-0.5-8.5,0.2-11.8c0.5-2.5,0.5-2.4,1.7-3
		C-222.5,315.6-206.1,307.9-205.9,308.1L-205.9,308.1z M-137.5,310.8v1.7c0,8.9-1,21-2.3,29.9c-0.2,1.5-0.4,2.8-0.5,2.9
		c0,0-1.2-0.3-2.5-0.7c-6-1.9-12.4-4.6-18.3-7.8c-3.9-2.1-9.4-5.6-9.3-5.7c0,0,1.7-0.9,3.7-1.9c7.8-4,15.2-8.4,21.7-12.7
		c2.4-1.6,6.1-4.2,6.9-5L-137.5,310.8L-137.5,310.8z M-235.9,322.6c0.2,0,0.1,0.3-0.1,1.7c-0.2,1-0.4,2.9-0.4,4.2
		c-0.3,5.8,0.6,10.1,3.5,16c0.8,1.6,1.4,3,1.4,3c-0.3,0.2-26.6,7.9-34.8,10.2c-2.5,0.7-4.6,1.3-4.8,1.3c-0.3,0.1-0.3,0-0.2-0.6
		c0.9-5.8,5.4-13.5,11.6-19.9c4.1-4.3,7.4-6.8,13.1-10C-242.7,326.2-236.5,322.8-235.9,322.6C-236,322.6-236,322.6-235.9,322.6
		L-235.9,322.6z M-174,333.7c0,0,1,0.5,2.1,1.2c8.5,4.9,20.3,9.5,30.4,11.8l0.9,0.2l-1.3,0.7c-5.3,2.9-22.6,10.2-40.4,16.8
		c-2.6,1-5.1,1.9-5.6,2.1c-0.5,0.2-0.9,0.3-0.9,0.3c0,0,0.7-1.4,1.6-3.1c5-9.3,10-20.6,12.5-28.5C-174.2,334.4-174,333.7-174,333.7
		L-174,333.7z M-180.3,335.7c0,0-0.3,0.9-0.7,1.8c-3.5,8.4-8,17.5-13.8,27.7c-1.5,2.6-2.7,4.7-2.7,4.7c0,0-1.2-0.7-2.7-1.6
		c-8.4-5.2-15.9-11.5-20.8-17.7l-0.7-0.9l3.6-1c12.9-3.5,23.9-7.3,34.9-12C-181.6,336.2-180.3,335.7-180.3,335.7z M-141.1,349.4
		C-141.1,349.4-141,349.5-141.1,349.4c0,0.9-2,9.1-3.7,15c-1.4,5-2.6,8.9-4.8,15.7c-1,3-1.8,5.5-1.8,5.5c0,0-0.3,0-0.5-0.1
		c-11.8-2.1-22.3-5.1-32.3-9.1c-2.8-1.1-6.7-2.9-7-3.1c-0.1-0.1,2.3-1.2,5.3-2.5c18.1-7.9,36.8-16.9,43.2-20.7
		C-141.8,349.7-141.2,349.4-141.1,349.4L-141.1,349.4z M-231.6,352.5c0.1,0.1-5,7.3-12,17.2c-2.5,3.5-5.3,7.5-6.4,9
		c-1.1,1.5-2.7,3.9-3.6,5.3l-1.7,2.6l-1.8-1.5c-2.1-1.7-5.8-5.5-7.4-7.5c-3.4-4.2-5.7-8.7-6.6-12.8c-0.4-1.9-0.4-2.9,0-3
		c0.6-0.2,11.2-2.7,21.1-5c5.5-1.3,11.9-2.8,14.2-3.3C-233.5,353-231.7,352.5-231.6,352.5L-231.6,352.5z M-226.6,354.5l1.3,1.4
		c5.7,6.4,11.6,11.1,18.6,15.2c1.3,0.7,2.2,1.3,2.1,1.4c-0.3,0.2-24.5,8.8-35.8,12.7c-6.3,2.2-11.5,4-11.6,4c0,0-0.4-0.2-0.8-0.5
		l-0.7-0.5l1.2-1.7c3.7-5.4,8.4-11.3,18.6-23.6L-226.6,354.5L-226.6,354.5z M-194.9,377.1c0,0,1.8,0.6,3.9,1.4
		c5.2,1.9,9.2,3.2,14.7,4.6c6.7,1.7,16.5,3.4,22.3,3.9c0.9,0.1,1.3,0.2,1.2,0.3c-0.3,0.2-6.1,2.1-10.4,3.5
		c-6.8,2.1-27.7,8.3-44.7,13.2c-3.1,0.9-5.8,1.7-6,1.7c-0.4,0.1-1.7-0.3-1.7-0.4c0-0.1,1-1.3,2.1-2.7c5.7-6.8,11.4-14.4,16.1-21.7
		C-196,378.8-194.9,377.2-194.9,377.1L-194.9,377.1z M-201.9,377.3c0,0-2.8,4.6-7.7,12.3c-2.1,3.3-4.4,7-5.3,8.3
		c-0.8,1.3-2,3.3-2.7,4.4l-1.2,2l-0.6-0.2c-1.4-0.4-11.5-3.9-14.1-5c-3.3-1.3-6.7-2.9-9.2-4.2c-3.2-1.7-7.1-4.2-6.8-4.3
		c0.1,0,5.5-1.5,12.1-3.3c17.4-4.7,27-7.5,33.3-9.4C-202.9,377.6-201.9,377.3-201.9,377.3L-201.9,377.3z M-152.4,388.9L-152.4,388.9
		c0.2,0.4-6.2,18.3-8.6,23.9c-0.5,1.3-0.7,1.6-1,1.5c-0.7,0-10-1.3-15.7-2.2c-9.9-1.5-26.5-4.4-30.6-5.4l-1-0.2l5.9-1.4
		c12.7-2.9,18.8-4.4,25-6.3c7.8-2.4,15.6-5.4,23.4-9C-153.7,389.4-152.7,389-152.4,388.9L-152.4,388.9z"/>
	
		<linearGradient id="SVGID_2_" gradientUnits="userSpaceOnUse" x1="-20916.5488" y1="-19241.2188" x2="-20843.3223" y2="-19241.2188" gradientTransform="matrix(0.1187 0 0 0.1187 2244.4512 2463.665)">
		<stop  offset="0" style="stop-color:#939FAB"/>
		<stop  offset="1" style="stop-color:#DCDEE1"/>
	</linearGradient>
	<path class="st1" d="M-181.9,154.2c-0.9-0.1-15,5-24.1,8.7c-12.3,5-21.8,9.8-27.7,13.9c-2.2,1.5-4.9,4.3-5.4,5.4
		c-0.2,0.4-0.2,0.9-0.2,1.3l5.3,5l12.7,4l30.1,5.4l34.5,5.9l0.4-3c-0.1,0-0.2,0-0.3,0l-4.5-0.7l-0.9-1.6
		c-4.7-8.3-9.8-18.5-12.9-25.4c-2.3-5.4-4.6-11.6-5.8-16C-181.4,154.4-181.5,154.2-181.9,154.2L-181.9,154.2L-181.9,154.2
		L-181.9,154.2z M-182.6,156.2L-182.6,156.2c0.1,0,0.2,1.2,0.4,2.5c0.7,5.6,1.9,10.9,3.9,16.7c1.5,4.4,1.5,4.1-0.2,3.6
		c-4-1.1-22.2-4.2-35.3-6.1c-2.1-0.3-3.9-0.6-3.9-0.6c-0.2-0.2,9.5-5.2,13.7-7.2C-198.6,162.6-183.7,156.4-182.6,156.2L-182.6,156.2
		z M-220.8,174l1.5,0.5c8.4,2.9,29.6,6.9,41.2,7.9c1.3,0.1,2.4,0.2,2.5,0.2c0,0-1.1,0.6-2.5,1.3c-5.6,2.8-11.8,6.3-16.1,8.9
		c-1.3,0.8-2.4,1.4-2.6,1.4c-0.2,0-1-0.2-1.9-0.3l-1.6-0.2l-4-3.9c-7-6.8-12.5-12-14.6-14L-220.8,174z M-222.4,175.2l5.6,7
		c3.1,3.9,6.2,7.6,6.8,8.5c0.7,0.8,1.2,1.5,1.2,1.5c-0.2,0.1-8.1-1.4-12.3-2.4c-4.3-1-6.1-1.5-8.8-2.3l-2.2-0.7v-0.6
		c0-2.7,3.4-6.6,9.1-10.7L-222.4,175.2L-222.4,175.2z M-174.9,184.8c0.2,0,0.4,0.4,0.8,1.4c1.3,3,5.6,11,6.6,12.5
		c0.3,0.5,0.9,0.6-4.7-0.4c-13.5-2.2-17.8-2.9-17.8-3c0,0,0.4-0.3,0.9-0.6c4.2-2.3,8.4-5.2,12.1-8.4c0.9-0.8,1.7-1.5,1.9-1.6
		C-175,184.8-174.9,184.7-174.9,184.8L-174.9,184.8z"/>
	
		<radialGradient id="SVGID_3_" cx="-3098.2585" cy="-10566.8066" r="97.223" gradientTransform="matrix(-0.114 -1.712736e-02 3.463960e-02 -0.228 -149.2472 -2213.7332)" gradientUnits="userSpaceOnUse">
		<stop  offset="0" style="stop-color:#EE352C"/>
		<stop  offset="1" style="stop-color:#A91D22"/>
	</radialGradient>
	<path class="st2" d="M-238.7,181.5c0,0-0.9,1.4,0,3.5c0.5,1.3,2,2.8,3.7,4.4c0,0,17.7,17.2,19.8,19.7c9.8,11.3,14,22.4,14.4,37.7
		c0.2,9.8-1.6,18.5-6.3,28.5c-8.3,18-25.7,37.9-52.6,60l3.9-1.3c2.5-1.9,6-3.9,14.1-8.4c18.7-10.2,39.7-19.7,65.5-29.3
		c37.2-14,98.3-30.3,133-35.6l3.6-0.6l-0.6-0.9c-3.2-4.9-5.4-8-8-11.2c-7.6-9.4-16.9-17.1-28.2-23.5c-15.6-8.7-35.7-15.5-61.2-20.5
		c-4.8-1-15.4-2.8-23.9-4.1c-18.2-2.8-29.9-4.8-42.9-7c-4.6-0.8-11.6-2-16.2-3c-2.4-0.5-6.9-1.6-10.5-2.8
		C-233.7,186-237.9,184.9-238.7,181.5L-238.7,181.5z M-228.5,191.5c0,0,0.7,0.2,1.5,0.5c1.5,0.5,3.5,1.1,5.8,1.7
		c1.7,0.5,3.5,0.9,5.2,1.4c2.4,0.6,4.4,1.2,4.4,1.2c0.3,0.3,4.3,13.1,5.6,18c0.5,1.9,0.9,3.5,0.9,3.5c0,0-0.5-0.6-1-1.5
		c-4.6-8.2-12-16.5-20.5-23.1C-227.7,192.2-228.5,191.5-228.5,191.5L-228.5,191.5z M-209,196.9c0.2,0,1.1,0.1,2.1,0.4
		c6.7,1.5,18.9,3.8,26.6,5.1c1.3,0.2,2.3,0.4,2.3,0.5c0,0.1-0.5,0.4-1.1,0.7c-1.3,0.7-6.6,3.8-8.3,5c-4.4,2.9-8.4,6.1-11.2,9
		c-1.2,1.2-2.1,2.1-2.1,2.1s-0.2-0.7-0.4-1.5c-1.4-5.5-4.4-13.7-7.1-19.5C-208.6,197.7-209,196.9-209,196.9
		C-209,196.9-209,196.9-209,196.9L-209,196.9z M-174.6,203.4c0.2,0.1,0.6,1.4,1.4,4.4c1.5,5.8,2.1,12.2,1.9,18.2
		c-0.1,1.7-0.2,3.2-0.2,3.4l-0.1,0.4l-2.1-0.7c-4.2-1.3-11.2-3.4-17.1-5c-3.4-0.9-6.1-1.7-6.1-1.8c0-0.2,4.9-5.2,7-7
		C-185.8,211.7-174.9,203.3-174.6,203.4L-174.6,203.4z M-171.8,203.8c0.1-0.1,16.4,2.7,23.9,4.1c5.5,1.1,13.5,2.7,14,2.9
		c0.2,0.1-0.6,0.6-3.3,1.7c-10.5,4.7-18.3,9-26,14.1c-2,1.3-3.7,2.5-3.8,2.5c0,0-0.1-1.2-0.1-2.5c0-7.5-1.5-15.2-4.3-21.6
		C-171.6,204.5-171.9,203.9-171.8,203.8z M-129.6,212.2c0.1,0.1-0.4,3.3-0.9,5.2c-1.4,5.9-5.3,14.7-10,22.9
		c-0.8,1.5-1.6,2.7-1.7,2.7c-0.1,0-1.2-0.6-2.4-1.3c-4.6-2.7-9.8-5.2-15.6-7.6c-1.6-0.7-3-1.2-3-1.3c-0.3-0.2,12.5-8.7,19.3-12.7
		C-138.5,216.8-129.8,212-129.6,212.2L-129.6,212.2z M-126.6,212.6c0.4,0,7.6,2,11.4,3.1c9.3,2.8,20,6.7,27,9.9l2.9,1.3l-2,0.5
		c-17.1,3.9-31.7,8.5-45.8,14.2c-1.2,0.5-2.2,0.9-2.3,0.9c-0.1,0,0.3-0.9,0.8-2c4.2-9,7-18.4,7.7-26.4
		C-126.9,213.2-126.8,212.6-126.6,212.6L-126.6,212.6z M-198.6,229.1c0.1-0.1,5.6,1.2,8.6,2c4.5,1.3,14.1,4.5,14.1,4.7
		c0,0-1.1,1-2.3,2.1c-5.2,4.3-10.2,8.9-16.2,14.7c-1.8,1.7-3.3,3.1-3.4,3.1c-0.1,0-0.1-0.2-0.1-0.6c0.9-6.7,0.7-15.2-0.6-23.9
		C-198.5,230.1-198.6,229.2-198.6,229.1z M-82.6,229.3c0.1,0.1-2.5,4.2-4.2,6.5c-2.4,3.4-5.9,7.9-13.8,17.9
		c-4.2,5.2-8.9,11.2-10.4,13.1c-1.6,2-2.9,3.7-2.9,3.7c0,0-0.6-0.7-1.1-1.6c-4.4-6.7-9.8-12.5-16.1-17.7c-1.2-1-2.5-2.1-2.9-2.4
		c-0.4-0.3-0.8-0.6-0.8-0.7c0-0.1,6.7-3,11.9-5.1c9-3.7,21.2-8,30.4-10.8C-87.8,230.7-82.7,229.2-82.6,229.3L-82.6,229.3z
		 M-79.6,230.1c0.2,0,1.1,0.4,2.3,1.1c9.6,5.5,19.1,12.6,26.6,19.9c2.1,2.1,7.3,7.5,7.2,7.5c0,0-1.8,0.2-4,0.3
		c-16.7,1.3-38.1,4.8-58.7,9.8c-1.4,0.3-2.6,0.6-2.7,0.6c-0.1,0,1.5-1.5,3.4-3.4c12.1-11.6,17.6-19,24.1-32.1
		C-80.4,231.8-79.6,230.2-79.6,230.1C-79.6,230.1-79.6,230.1-79.6,230.1L-79.6,230.1z M-168,239.1c0.6,0.1,5.7,2.5,9.6,4.5
		c3.6,1.8,8.9,4.6,9.2,4.9c0,0-1.9,1-4.2,2.2c-7.5,3.7-13.9,7.3-20.5,11.3c-1.9,1.2-3.5,2.1-3.5,2.1c-0.2,0-0.1-0.2,1-2.1
		c3.6-6.5,6.4-14.3,8.1-21.9C-168.2,239.5-168.1,239.1-168,239.1L-168,239.1z M-173.1,240.1c0.1,0.1-1.2,5-2.1,7.7
		c-1.6,5-4.4,11.4-7,16.1c-0.6,1.1-1.6,2.7-2.1,3.7l-1,1.6l-2.2-2.1c-2.6-2.5-4.7-4-7.4-5.4c-1.1-0.6-1.9-1-1.9-1.1
		c0-0.3,6.8-6.5,12-10.9C-181.1,246.3-173.2,239.9-173.1,240.1L-173.1,240.1z M-141.6,253l1.9,1.3c4.4,2.9,9.7,6.7,13.7,10.1
		c2.3,1.9,6.6,5.8,7.5,6.7l0.5,0.5l-3.2,0.9c-18.2,5-32.2,9.5-48.6,15.6c-1.8,0.7-3.4,1.2-3.5,1.2c-0.2,0-0.4,0.2,3.7-3.6
		c10.5-9.6,19.8-20.3,26.7-30.6L-141.6,253L-141.6,253z M-149.9,255.1c0.1,0.1-5.4,7.7-8.6,12.1c-3.9,5.2-10.8,13.8-15.6,19.5
		c-2,2.3-3.7,4.3-3.8,4.3c-0.1,0-0.2-0.6-0.2-1.5c0-4.8-1.2-9.9-3.4-14.3c-0.9-1.8-1.1-2.3-0.9-2.5c0.8-0.7,12.3-7.3,19.6-11.2
		C-157.7,258.9-150,255-149.9,255.1L-149.9,255.1z M-200,267.4c0.1,0,1,0.5,2.1,1c2.5,1.4,4.8,2.9,6.8,4.6c0.1,0.1-1,0.9-2.3,1.9
		c-3.8,2.7-9.5,7-12.8,9.7c-3.5,2.8-3.6,2.9-3.2,2.3c2.6-4,3.9-6.3,5.3-9.2c1.2-2.6,2.5-5.6,3.3-8.3
		C-200.5,268.3-200.1,267.4-200,267.4L-200,267.4z M-186.7,277.9c0.2,0,0.4,0.3,1.5,1.9c2.3,3.4,4,7.9,4.4,11.6l0.1,0.8l-5.4,2.1
		c-9.7,3.8-18.7,7.5-24.8,10.3c-1.7,0.8-4.7,2.2-6.6,3.2c-1.9,1-3.5,1.7-3.5,1.7s1.2-1,2.7-2.1c11.9-8.6,22.2-18.1,29.9-27.5
		C-187.6,278.8-186.8,277.9-186.7,277.9L-186.7,277.9L-186.7,277.9z M-192.8,279.4c0.2,0.2-4.4,5.3-7.5,8.4
		c-7.7,7.8-15.2,13.9-24.7,19.9c-1.2,0.8-2.3,1.4-2.4,1.5c-0.3,0.2,0.1-0.2,4.2-4.7c2.6-2.8,4.6-5.2,6.9-8.1c1.5-1.9,1.8-2.2,4-3.8
		C-206.4,288.4-193,279.2-192.8,279.4z"/>
</g>
<path class="st3" d="M50.5,165.3c-0.2,0-0.5,0-0.7,0c-4.6,0.2-7.6,2.3-9.4,6.2c-1.5,3.6-1.4,8.2,0,11.8c1.6,3.5,4.2,5.3,8.6,6
	c0.9,0.2,1.5,0.7,3.3,2.7l2.2,2.6h4l-2.7-2.7c-1.5-1.5-2.6-2.7-2.6-2.9c0-0.1,0.6-0.4,1.2-0.6c2.2-0.7,4.1-2.4,5.4-5.1
	c1.1-2.1,1.2-2.8,1.4-5.4C61.6,170.2,57.5,165.3,50.5,165.3L50.5,165.3L50.5,165.3z M54,185.9c-1.9,0.9-4.8,1.1-6.6,0.5
	c-1.9-0.7-3.7-2.7-4.6-4.9c-0.9-2.4-0.8-7,0.3-9c1.7-3.2,3.9-4.7,7.2-4.7c4.8,0,7.6,3,8,8.5C58.6,181,57,184.5,54,185.9L54,185.9z
	 M122.9,172.1c-1.7,0-3,0.7-3.8,2l-0.7,1.1v-2.7h-2.9v16.5h2.9v-5.3c0-4.8,0.1-5.4,0.7-6.7c0.9-1.8,2.5-2.7,4.1-2.3l1,0.3v-2.9
	L122.9,172.1L122.9,172.1L122.9,172.1z M105.9,171.9c-0.6,0-1.2,0.1-1.8,0.2c-3.9,1-6.1,4.7-5.9,8.5c0,3.2,0.6,4.8,2.2,6.5
	c3.2,2.6,6,2.8,9.9,1.4c0.7-0.3,1.4-0.6,1.4-0.6v-2.6l-1.4,0.7c-3.1,1.4-5.5,1.4-7.3-0.2c-1.2-1.2-1.7-2.7-2-4.4h11.7v-2.2
	C112.6,174.7,109.9,171.8,105.9,171.9L105.9,171.9L105.9,171.9z M101.2,179.1c0,0,0.4-2.8,2-3.9c0.8-0.5,1.7-0.8,2.5-0.8
	c0.9,0,1.7,0.3,2.4,0.8c1.5,1.1,1.7,3.9,1.7,3.9L101.2,179.1L101.2,179.1L101.2,179.1L101.2,179.1z M31.4,176.2
	c-3.1-1.9-4.5-3.3-4.4-4.9c0.5-4.5,6-3.9,9.1-2.2l0-3c0,0-1.7-0.7-4.1-0.8c-3.7-0.1-6.1,1.2-7.2,3.6c-1.7,3.7-0.2,6.4,5.1,9.5
	c3,1.7,4.3,3.2,4.3,4.9c0,3.4-4.1,4.6-8.3,2.4c-0.9-0.4-1.6-0.8-1.6-0.8c-0.2,1-0.1,3.3-0.1,3.3s1.3,0.5,3.2,0.9
	c4.8,1,9.2-1.3,9.6-5C37.4,180.8,36.1,179,31.4,176.2L31.4,176.2L31.4,176.2z M148.5,171.9c-0.6,0-1.2,0.1-1.8,0.2
	c-3.9,1-6,4.7-5.9,8.5c0,3.2,0.6,4.8,2.2,6.4c3.2,2.6,6,2.8,9.9,1.4c0.7-0.3,1.4-0.6,1.4-0.6v-2.6l-1.4,0.7
	c-3.1,1.4-5.5,1.4-7.3-0.2c-1.2-1.2-1.7-2.7-2-4.4h11.6v-2.2C155.2,174.7,152.5,171.8,148.5,171.9L148.5,171.9L148.5,171.9z
	 M143.8,179.1c0,0,0.4-2.8,2-3.9c0.8-0.5,1.7-0.8,2.5-0.8c0.9,0,1.7,0.3,2.4,0.8c1.5,1.1,1.7,3.9,1.7,3.9L143.8,179.1L143.8,179.1
	L143.8,179.1z M90.7,176.2c-3.1-1.9-4.5-3.3-4.4-4.9c0.5-4.5,6-3.9,9.1-2.2l0-3c0,0-1.7-0.7-4.1-0.8c-3.7-0.1-6.1,1.2-7.3,3.6
	c-1.7,3.7-0.2,6.4,5.1,9.5c3,1.7,4.3,3.2,4.3,4.8c0,3.4-4.1,4.6-8.3,2.4c-0.9-0.4-1.6-0.8-1.6-0.8c-0.2,1-0.1,3.3-0.1,3.3
	s1.3,0.5,3.2,0.9c4.8,1,9.2-1.3,9.6-5C96.7,180.8,95.4,179,90.7,176.2L90.7,176.2L90.7,176.2z M165.5,172c-1.7,0-3,0.7-3.8,2
	l-0.7,1.1v-2.7h-2.9v16.5h2.9v-5.3c0-4.8,0.1-5.4,0.7-6.7c0.9-1.8,2.5-2.7,4.1-2.3l1,0.3V172L165.5,172L165.5,172z M67.7,176.1
	v-10.5h-2.9v23.2h12.3v-2.7h-9.4L67.7,176.1L67.7,176.1z M135.2,179.4l-2.4,6.3l-2.3-6.3l-2.3-7h-3c1.9,5.5,4,11.1,6.2,16.5
	c0.9,0,1.8,0,2.8,0l3.2-8.2l3.3-8.3h-2.9C137.8,172.4,136.5,175.7,135.2,179.4L135.2,179.4L135.2,179.4z M74.5,159.3
	c0.5,0,0.9-0.2,1.2-0.5c0.3-0.3,0.5-0.7,0.5-1.2c0-0.5-0.2-0.9-0.5-1.2c-0.3-0.3-0.7-0.5-1.2-0.5c-0.5,0-0.9,0.2-1.2,0.5
	c-0.3,0.3-0.5,0.7-0.5,1.2c0,0.5,0.2,0.9,0.5,1.2C73.6,159.1,74,159.3,74.5,159.3L74.5,159.3L74.5,159.3z M73.4,156.6
	c0.3-0.3,0.6-0.4,1.1-0.4c0.4,0,0.7,0.1,1,0.4c0.3,0.3,0.4,0.6,0.4,1c0,0.4-0.2,0.8-0.4,1.1c-0.3,0.3-0.6,0.4-1,0.4
	c-0.4,0-0.8-0.1-1-0.4c-0.3-0.3-0.4-0.6-0.4-1.1C73,157.2,73.1,156.9,73.4,156.6z M74.1,157.8h0.2c0.1,0,0.3,0.1,0.4,0.4l0.2,0.5
	h0.4l-0.3-0.6c-0.1-0.2-0.2-0.4-0.4-0.4c0.2,0,0.3-0.1,0.4-0.2c0.1-0.1,0.1-0.2,0.1-0.4c0-0.2-0.1-0.3-0.2-0.4
	c-0.1-0.1-0.3-0.2-0.6-0.2h-0.6v2.1h0.3L74.1,157.8L74.1,157.8L74.1,157.8z M74.1,156.8h0.3c0.2,0,0.3,0,0.4,0.1
	c0.1,0.1,0.1,0.1,0.1,0.3c0,0.2-0.2,0.4-0.4,0.4h-0.3L74.1,156.8L74.1,156.8L74.1,156.8z M25.9,157.6c0-0.7,0-1.3,0-1.6h0
	c0.1,0.4,0.2,0.7,0.2,0.8l2.8,6.3h0.5l2.8-6.3c0.1-0.2,0.2-0.4,0.2-0.8h0c-0.1,0.6-0.1,1.2-0.1,1.6v5.5h1v-8.2h-1.2l-2.6,5.7
	c-0.1,0.2-0.2,0.6-0.4,1h0c-0.1-0.2-0.2-0.6-0.4-1l-2.5-5.8H25v8.2h0.9L25.9,157.6L25.9,157.6L25.9,157.6z M35.5,157.6h0.8v5.1h-0.8
	V157.6z M35.9,155.8c0.2,0,0.3-0.1,0.4-0.2c0.1-0.1,0.2-0.3,0.2-0.4c0-0.2-0.1-0.3-0.2-0.4c-0.1-0.1-0.3-0.2-0.4-0.2
	c-0.2,0-0.3,0.1-0.4,0.2c-0.1,0.1-0.2,0.3-0.2,0.4c0,0.2,0.1,0.3,0.2,0.4C35.6,155.7,35.7,155.8,35.9,155.8L35.9,155.8L35.9,155.8z
	 M42.2,162.9V162c-0.5,0.3-0.9,0.5-1.4,0.5c-0.6,0-1.1-0.2-1.5-0.6c-0.4-0.4-0.5-0.9-0.5-1.6c0-0.7,0.2-1.3,0.6-1.7
	c0.4-0.4,0.9-0.6,1.5-0.6c0.5,0,1,0.2,1.4,0.5v-1c-0.4-0.2-0.8-0.3-1.4-0.3c-0.9,0-1.7,0.3-2.2,0.9c-0.5,0.6-0.8,1.4-0.8,2.3
	c0,0.8,0.2,1.6,0.7,2.1c0.5,0.6,1.2,0.8,2,0.8C41.2,163.3,41.7,163.1,42.2,162.9L42.2,162.9z M44.6,160.1c0-0.7,0.2-1.2,0.4-1.6
	c0.3-0.3,0.6-0.5,1-0.5c0.3,0,0.5,0.1,0.7,0.2v-1c-0.1-0.1-0.3-0.1-0.6-0.1c-0.3,0-0.6,0.1-0.9,0.3c-0.3,0.2-0.5,0.6-0.6,1h0v-1.2
	h-0.9v5.9h0.9L44.6,160.1L44.6,160.1z M50,163.3c0.9,0,1.6-0.3,2.1-0.8c0.5-0.6,0.8-1.3,0.8-2.3c0-1-0.2-1.7-0.7-2.2
	c-0.5-0.5-1.2-0.8-2-0.8s-1.6,0.3-2.1,0.8c-0.6,0.6-0.9,1.4-0.9,2.4c0,0.9,0.2,1.6,0.7,2.2C48.4,163,49.1,163.3,50,163.3L50,163.3
	L50,163.3z M48.6,158.5c0.4-0.4,0.8-0.6,1.4-0.6c0.6,0,1.1,0.2,1.4,0.6c0.3,0.4,0.5,1,0.5,1.7c0,0.7-0.2,1.3-0.5,1.7
	c-0.3,0.4-0.8,0.6-1.4,0.6c-0.6,0-1.1-0.2-1.4-0.6c-0.4-0.4-0.5-0.9-0.5-1.7C48.1,159.5,48.2,158.9,48.6,158.5L48.6,158.5z
	 M57,162.7c0.4-0.3,0.5-0.7,0.5-1.2c0-0.4-0.2-0.8-0.4-1.1c-0.2-0.2-0.6-0.4-1.1-0.6c-0.5-0.2-0.7-0.4-0.9-0.5
	c-0.2-0.2-0.2-0.3-0.2-0.6c0-0.2,0.1-0.4,0.3-0.6c0.2-0.2,0.4-0.2,0.8-0.2c0.5,0,0.9,0.1,1.3,0.4v-0.9c-0.4-0.2-0.8-0.3-1.3-0.3
	c-0.6,0-1.1,0.2-1.5,0.5c-0.4,0.3-0.6,0.7-0.6,1.2c0,0.4,0.1,0.8,0.4,1.1c0.2,0.2,0.6,0.5,1.1,0.7c0.5,0.2,0.8,0.4,1,0.5
	c0.2,0.2,0.2,0.3,0.2,0.6c0,0.5-0.4,0.8-1.1,0.8c-0.6,0-1.1-0.2-1.5-0.6v1c0.4,0.2,0.9,0.4,1.4,0.4C56.1,163.3,56.6,163.1,57,162.7
	L57,162.7L57,162.7z M61.5,157.1c-0.9,0-1.6,0.3-2.1,0.8c-0.6,0.6-0.9,1.4-0.9,2.4c0,0.9,0.2,1.6,0.7,2.2c0.5,0.6,1.2,0.8,2.1,0.8
	c0.9,0,1.6-0.3,2.1-0.8c0.5-0.6,0.8-1.3,0.8-2.3c0-1-0.2-1.7-0.7-2.2C63,157.4,62.3,157.1,61.5,157.1L61.5,157.1L61.5,157.1z
	 M63.3,160.2c0,0.7-0.2,1.3-0.5,1.7c-0.3,0.4-0.8,0.6-1.4,0.6c-0.6,0-1.1-0.2-1.4-0.6c-0.4-0.4-0.5-0.9-0.5-1.7
	c0-0.8,0.2-1.3,0.6-1.7c0.4-0.4,0.8-0.6,1.4-0.6c0.6,0,1,0.2,1.4,0.6C63.1,158.9,63.3,159.4,63.3,160.2L63.3,160.2L63.3,160.2z
	 M65.8,163.1h0.9V158h1.4v-0.8h-1.4v-0.9c0-0.8,0.3-1.2,1-1.2c0.2,0,0.4,0.1,0.6,0.2v-0.8c-0.2-0.1-0.4-0.1-0.7-0.1
	c-0.5,0-0.9,0.2-1.3,0.5c-0.4,0.4-0.6,0.9-0.6,1.5v1h-1v0.8h1L65.8,163.1L65.8,163.1z M69.7,161.5c0,1.1,0.5,1.7,1.5,1.7
	c0.4,0,0.7-0.1,0.9-0.2v-0.8c-0.2,0.1-0.4,0.2-0.6,0.2c-0.3,0-0.5-0.1-0.7-0.2c-0.1-0.2-0.2-0.5-0.2-0.8V158h1.5v-0.8h-1.5v-1.7
	c-0.3,0.1-0.6,0.2-0.9,0.3v1.4h-1v0.8h1L69.7,161.5L69.7,161.5z M170.5,172.3c-0.3-0.3-0.7-0.5-1.2-0.5c-0.5,0-0.9,0.2-1.2,0.5
	c-0.3,0.3-0.5,0.7-0.5,1.2c0,0.5,0.2,0.9,0.5,1.2c0.3,0.3,0.7,0.5,1.2,0.5c0.5,0,0.9-0.2,1.2-0.5c0.3-0.3,0.5-0.7,0.5-1.2
	C171,173,170.8,172.6,170.5,172.3L170.5,172.3z M170.3,174.5c-0.3,0.3-0.6,0.4-1,0.4c-0.4,0-0.7-0.1-1-0.4c-0.3-0.3-0.4-0.6-0.4-1.1
	c0-0.4,0.1-0.7,0.4-1c0.3-0.3,0.6-0.4,1.1-0.4c0.4,0,0.8,0.1,1,0.4c0.3,0.3,0.4,0.6,0.4,1C170.8,173.9,170.6,174.3,170.3,174.5z
	 M169.5,173.6c0.2,0,0.3-0.1,0.4-0.2c0.1-0.1,0.1-0.2,0.1-0.4c0-0.2-0.1-0.3-0.2-0.4c-0.1-0.1-0.3-0.2-0.6-0.2h-0.6v2.1h0.3v-0.9
	h0.2c0.1,0,0.3,0.1,0.4,0.4l0.2,0.5h0.4l-0.3-0.6C169.7,173.7,169.6,173.6,169.5,173.6L169.5,173.6L169.5,173.6z M169.3,173.4H169
	v-0.7h0.3c0.2,0,0.3,0,0.4,0.1c0.1,0.1,0.1,0.1,0.1,0.3C169.7,173.3,169.6,173.4,169.3,173.4L169.3,173.4L169.3,173.4z M116.9,157
	h0.3v-2.1h0.7v-0.3h-1.7v0.3h0.7L116.9,157L116.9,157z M118.5,155.4c0-0.2,0-0.4,0-0.5c0,0.1,0.1,0.2,0.1,0.2l0.8,1.8h0.1l0.8-1.8
	c0-0.1,0-0.1,0.1-0.2c0,0.2,0,0.3,0,0.5v1.6h0.3v-2.4h-0.3l-0.7,1.6c0,0.1-0.1,0.2-0.1,0.3h0c0-0.1-0.1-0.2-0.1-0.3l-0.7-1.7h-0.4
	v2.4h0.3L118.5,155.4L118.5,155.4L118.5,155.4z"/>
</svg>
