<?xml version="1.0" encoding="utf-8"?>
<!-- Generator: Adobe Illustrator 22.0.1, SVG Export Plug-In . SVG Version: 6.00 Build 0)  -->
<svg version="1.1" id="Layer_1" xmlns="http://www.w3.org/2000/svg" xmlns:xlink="http://www.w3.org/1999/xlink" x="0px" y="0px"
	 viewBox="0 0 200 200" style="enable-background:new 0 0 200 200;" xml:space="preserve">
<style type="text/css">
	.st0{fill:#E95420;}
	.st1{fill:#FFFFFF;}
</style>
<g>
	<path class="st0" d="M173,77.9c0,40.2-32.6,72.7-72.7,72.7c-40.2,0-72.7-32.6-72.7-72.7c0-40.2,32.6-72.7,72.7-72.7
		C140.4,5.2,173,37.7,173,77.9z"/>
	<path class="st1" d="M62.5,77.9c0,5.2-4.2,9.4-9.4,9.4c-5.2,0-9.3-4.2-9.3-9.4c0-5.2,4.2-9.3,9.3-9.3
		C58.4,68.5,62.5,72.7,62.5,77.9z M115.7,123.4c2.6,4.5,8.3,6,12.8,3.4c4.5-2.6,6-8.3,3.4-12.8c-2.6-4.5-8.3-6-12.8-3.4
		C114.7,113.2,113.2,118.9,115.7,123.4z M131.9,41.8c2.6-4.5,1.1-10.2-3.4-12.8c-4.5-2.6-10.2-1-12.8,3.4s-1.1,10.2,3.4,12.8
		S129.3,46.3,131.9,41.8z M100.3,51.2c13.9,0,25.4,10.7,26.6,24.3l13.5-0.2c-0.6-10.1-5-19.2-11.8-25.9c-3.6,1.4-7.7,1.2-11.3-0.9
		c-3.6-2.1-5.8-5.6-6.4-9.4c-3.4-0.9-6.9-1.4-10.5-1.4c-6.4,0-12.4,1.5-17.8,4.2L89,53.7C92.5,52.1,96.3,51.2,100.3,51.2z
		 M73.6,77.9c0-9,4.5-17,11.3-21.8L78,44.5C70,49.8,64,58,61.4,67.6c3,2.4,4.9,6.1,4.9,10.2c0,4.1-1.9,7.8-4.9,10.2
		C64,97.8,70,106,78,111.3L85,99.7C78.1,94.9,73.6,86.9,73.6,77.9z M100.3,104.6c-4,0-7.8-0.9-11.2-2.5l-6.6,11.8
		c5.4,2.7,11.4,4.2,17.8,4.2c3.6,0,7.2-0.5,10.5-1.4c0.6-3.8,2.8-7.3,6.4-9.4c3.6-2.1,7.7-2.3,11.3-0.9c6.8-6.7,11.2-15.8,11.8-25.9
		l-13.5-0.2C125.6,93.9,114.2,104.6,100.3,104.6z"/>
</g>
<g>
	<g>
		<path d="M38.8,195.8c-1.2,0.3-2.8,0.6-4.7,1c-2,0.3-4.2,0.5-6.8,0.5c-2.2,0-4.1-0.3-5.7-1c-1.5-0.7-2.8-1.6-3.7-2.8
			c-0.9-1.2-1.6-2.6-2-4.2c-0.4-1.6-0.6-3.4-0.6-5.4v-16.4h5.2v15.3c0,3.6,0.6,6.1,1.7,7.6c1.1,1.5,3,2.3,5.7,2.3
			c0.6,0,1.1,0,1.7-0.1c0.6,0,1.2-0.1,1.7-0.1c0.5-0.1,1-0.1,1.4-0.2c0.4-0.1,0.7-0.1,0.9-0.2v-24.7h5.2L38.8,195.8L38.8,195.8z"/>
		<path d="M51.6,168.7c0.6-0.4,1.6-0.8,2.9-1.3c1.3-0.5,2.8-0.7,4.5-0.7c2.1,0,4,0.4,5.6,1.1c1.6,0.8,3,1.8,4.1,3.1
			c1.1,1.3,2,3,2.6,4.8c0.6,1.9,0.9,3.9,0.9,6.2c0,2.4-0.3,4.5-1,6.4c-0.7,1.9-1.7,3.5-3,4.8c-1.3,1.3-2.8,2.3-4.6,3
			c-1.8,0.7-3.8,1.1-6.1,1.1c-2.4,0-4.6-0.2-6.5-0.5c-1.9-0.3-3.4-0.7-4.6-1v-41.9l5.2-0.9V168.7z M51.6,192.1
			c0.5,0.2,1.3,0.3,2.2,0.4c1,0.1,2.1,0.2,3.6,0.2c2.8,0,5.1-0.9,6.7-2.8c1.7-1.9,2.5-4.5,2.5-7.9c0-1.5-0.2-2.9-0.4-4.2
			c-0.3-1.3-0.8-2.4-1.5-3.4c-0.7-1-1.5-1.7-2.6-2.2c-1.1-0.5-2.4-0.8-3.9-0.8c-1.4,0-2.7,0.2-3.9,0.7c-1.2,0.5-2.1,1-2.8,1.5
			L51.6,192.1L51.6,192.1z"/>
		<path d="M101.3,195.8c-1.2,0.3-2.8,0.6-4.8,1c-2,0.3-4.2,0.5-6.8,0.5c-2.2,0-4.1-0.3-5.7-1c-1.5-0.7-2.8-1.6-3.7-2.8
			c-0.9-1.2-1.6-2.6-2-4.2c-0.4-1.6-0.6-3.4-0.6-5.4v-16.4h5.2v15.3c0,3.6,0.6,6.1,1.7,7.6c1.1,1.5,3,2.3,5.7,2.3
			c0.6,0,1.1,0,1.7-0.1c0.6,0,1.2-0.1,1.7-0.1c0.5-0.1,1-0.1,1.4-0.2c0.4-0.1,0.7-0.1,0.9-0.2v-24.7h5.2L101.3,195.8L101.3,195.8z"
			/>
		<path d="M108.8,168.3c1.2-0.3,2.8-0.6,4.8-1c2-0.3,4.3-0.5,6.9-0.5c2.3,0,4.3,0.3,5.8,1c1.5,0.7,2.8,1.6,3.7,2.8
			c0.9,1.2,1.6,2.6,1.9,4.2c0.4,1.6,0.6,3.5,0.6,5.5v16.4h-5.2v-15.3c0-1.8-0.1-3.3-0.4-4.6c-0.2-1.3-0.6-2.3-1.2-3.1
			c-0.6-0.8-1.3-1.4-2.2-1.7c-0.9-0.4-2.1-0.5-3.5-0.5c-0.6,0-1.1,0-1.7,0.1c-0.6,0-1.2,0.1-1.7,0.1c-0.5,0.1-1,0.1-1.5,0.2
			c-0.4,0.1-0.7,0.1-0.9,0.2v24.7h-5.2L108.8,168.3L108.8,168.3z"/>
		<path d="M144.5,167.4h11.1v4.4h-11.1v13.5c0,1.5,0.1,2.7,0.3,3.6c0.2,1,0.6,1.7,1,2.2c0.4,0.5,1,0.9,1.7,1.2
			c0.7,0.2,1.5,0.3,2.4,0.3c1.6,0,2.9-0.2,3.8-0.5c0.9-0.4,1.6-0.6,1.9-0.8l1.1,4.3c-0.5,0.3-1.5,0.6-2.8,1
			c-1.3,0.4-2.8,0.6-4.5,0.6c-2,0-3.6-0.3-4.9-0.8c-1.3-0.5-2.3-1.3-3.1-2.3c-0.8-1-1.3-2.3-1.7-3.7c-0.3-1.5-0.5-3.2-0.5-5.1v-26.1
			l5.2-0.9L144.5,167.4L144.5,167.4z"/>
		<path d="M184,195.8c-1.2,0.3-2.8,0.6-4.7,1c-2,0.3-4.2,0.5-6.8,0.5c-2.2,0-4.1-0.3-5.7-1c-1.5-0.7-2.8-1.6-3.7-2.8
			c-0.9-1.2-1.6-2.6-2-4.2c-0.4-1.6-0.6-3.4-0.6-5.4v-16.4h5.2v15.3c0,3.6,0.6,6.1,1.7,7.6c1.1,1.5,3,2.3,5.7,2.3
			c0.6,0,1.1,0,1.7-0.1c0.6,0,1.2-0.1,1.7-0.1c0.5-0.1,1-0.1,1.4-0.2c0.4-0.1,0.7-0.1,0.9-0.2v-24.7h5.2L184,195.8L184,195.8z"/>
	</g>
</g>
</svg>
