<?xml version="1.0" encoding="utf-8"?>
<!-- Generator: Adobe Illustrator 22.0.1, SVG Export Plug-In . SVG Version: 6.00 Build 0)  -->
<svg version="1.1" id="Layer_1" xmlns="http://www.w3.org/2000/svg" xmlns:xlink="http://www.w3.org/1999/xlink" x="0px" y="0px"
	 viewBox="0 0 200 200" style="enable-background:new 0 0 200 200;" xml:space="preserve">
<style type="text/css">
	.st0{fill:#0078D6;}
</style>
<path class="st0" d="M22,24.2l63.6-8.7V77H22 M93.2,14.3L177.5,2v74.4H93.2 M22,83.5h63.6v61.6L22,136.2 M93.2,84.3h84.2V158
	l-84.2-11.9"/>
<path class="st0" d="M3.9,162.1c1.5,0,3,0,4.5,0c2.3,8.4,4.6,16.7,6.9,25.1c0.5,1.8,0.9,3.5,1.1,5.4c2.4-10.3,5.7-20.3,8.5-30.5
	c1.3,0,2.6,0,3.9,0c2,7.2,3.9,14.5,6,21.8c0.7,2.9,1.7,5.7,2,8.7c2.2-10.3,5.3-20.3,7.8-30.5c1.5,0,2.9,0,4.4,0
	c-3.2,11.7-6.5,23.3-9.7,34.9h-4.8c-2.3-8.4-4.7-16.7-7-25.1c-0.4-1.4-0.6-2.7-0.7-4.1c-0.2,1.2-0.4,2.4-0.7,3.6
	c-2.4,8.5-4.8,17-7.1,25.6c-1.6,0.1-3.2,0.1-4.7,0.1C10.7,185.4,7.3,173.8,3.9,162.1"/>
<path class="st0" d="M51.6,162.4c0.2-1.4,1.5-2.5,2.9-2.3c1.4,0.2,2.5,1.5,2.3,2.9c-0.2,1.4-1.5,2.5-2.9,2.3
	c-1.2-0.2-2.1-1.1-2.3-2.3 M52.2,172h4v25.1h-4"/>
<path class="st0" d="M66.7,176c2.3-4,7.5-5.9,11.8-4c3.4,1.3,4.6,5.2,4.7,8.6c0.2,5.5,0,11,0.1,16.5c-1.3,0-2.6,0-4,0
	c-0.1-5.3,0.1-10.6-0.1-15.8c-0.1-2.6-1.2-5.8-4.1-6.4c-4.1-1.3-8.3,2.5-8.4,6.6c-0.1,5.2,0,10.4,0,15.7h-4c0-8.4,0-16.7,0-25.1h4
	C66.7,173.4,66.7,174.7,66.7,176"/>
<path class="st0" d="M106.9,160.2c1.3,0,2.6,0,4,0v36.9H107c0-1.3,0-2.7-0.1-4c-2.9,5.1-10.5,6.3-14.9,2.5c-3.1-2.7-4.1-7-3.9-11
	c0-4,1.4-8.3,4.5-10.9c4.1-3.4,11.5-3.2,14.3,1.8C106.9,170.3,107,165.2,106.9,160.2 M98.4,174.8c-3.2,0.5-5.3,3.4-5.9,6.4
	c-0.8,3.6-0.6,7.8,1.6,10.8c2.5,3.3,7.9,3.3,10.5,0.3c1.8-1.9,2.3-4.5,2.3-7c0-2.6,0.2-5.6-1.5-7.8
	C103.9,175.2,101,174.2,98.4,174.8"/>
<path class="st0" d="M126.3,171.4c3.5-0.3,7.4,0.2,10.1,2.8c3,2.8,3.9,7.1,3.7,11c0,3.5-1.4,7.1-3.9,9.6c-5.4,4.9-15.4,3.8-18.8-2.9
	c-2.7-5.7-2.1-13.5,2.8-17.8C121.8,172.6,124.1,171.9,126.3,171.4 M125.6,175c-5.8,1.8-6.8,9.4-5,14.4c1.4,4.4,7.1,6.4,11.1,4.3
	c2.7-1.3,4-4.3,4.2-7.2c0.3-3.3,0-7-2.3-9.6C131.7,174.6,128.3,174.2,125.6,175"/>
<path class="st0" d="M141.7,172h4.1c1.6,6,3.2,11.9,4.9,17.9c0.3,1.1,0.5,2.3,0.6,3.4c1.9-7.2,4.2-14.2,6.3-21.4l3.6,0
	c1.8,7.1,4.1,14.1,5.6,21.3c1.5-7.2,3.8-14.2,5.5-21.3c1.3-0.1,2.7-0.1,4-0.1c-2.5,8.4-4.9,16.7-7.4,25.1h-4.1
	c-1.8-6.8-4.1-13.5-5.5-20.3c-1.7,6.9-4.1,13.5-6.1,20.3h-4C146.7,188.7,144.2,180.4,141.7,172"/>
<path class="st0" d="M186.3,171.4c2.5-0.2,5,0.1,7.3,1c0.6,1.2,0.1,2.8,0.3,4.2c-2.8-1.7-6.6-2.8-9.6-1.1c-2.1,1.1-2.2,4.4-0.2,5.7
	c2.9,1.9,6.5,2.4,9.1,4.8c2.8,2.7,2.1,7.9-1.2,10c-4,2.6-9.3,2.3-13.5,0.4c0-1.5,0-3,0-4.4c3,2.3,7.2,3.5,10.8,1.9
	c2.1-1,2.2-4.3,0.4-5.6c-2.9-2.1-6.8-2.5-9.4-5.1c-2.5-2.5-2.1-7.2,0.7-9.4C182.5,172.3,184.4,171.9,186.3,171.4"/>
</svg>
